# xmcd
#
# Track frame offsets:
#	150
#	14132
#	28480
#	51383
#	66408
#	98943
#	117460
#	132203
#	164294
#	180111
#	195822
#	208868
#	232176
#
# Disc length: 3256 seconds
# Revision: 0
# Processed by: cddbd v1.5.2PL0 Copyright (c) Steve Scherf et al.
# Submitted via: dBpowerAMP V12.0
#
DISCID=c00cb60d
DTITLE=Tony Trischka - Great Big World
DYEAR=2014
DGENRE=Country
TTITLE0=Say Goodbye [For KM]
TTITLE1=Do Re Mi
TTITLE2=The Danny Thomas
TTITLE3=Promontory Point
TTITLE4=Single String Medley: I. Amanda and Her Amazing Dancing Ducks [4th String], II. Green Heart of the Forest [2nd String], III. Old Shakey [5th String], iV. Spanish Point [3rd String], V. Sounds Like Home [1st String]
TTITLE5=Belated Wedding Hoedown - Angelina Baker
TTITLE6=Ocracoke Lullabye
TTITLE7=Great Big World - Purple Trees Of Colorado
TTITLE8=Joy
TTITLE9=I Wonder Where You Are Tonight
TTITLE10=Lost
TTITLE11=Wild Bill Hickok
TTITLE12=Swag Bag Rag
EXTD=
EXTT0=
EXTT1=
EXTT2=
EXTT3=
EXTT4=
EXTT5=
EXTT6=
EXTT7=
EXTT8=
EXTT9=
EXTT10=
EXTT11=
EXTT12=
PLAYORDER=
